<?xml version="1.0" encoding="UTF-8"?> <!-- Generator: Adobe Illustrator 25.4.1, SVG Export Plug-In . SVG Version: 6.00 Build 0) --> <svg xmlns="http://www.w3.org/2000/svg" xmlns:xlink="http://www.w3.org/1999/xlink" version="1.1" id="Layer_1" x="0px" y="0px" viewBox="0 0 300 300" style="enable-background:new 0 0 300 300;" xml:space="preserve"> <style type="text/css"> .st0{fill:#FFFFFF;} </style> <rect y="0" width="300" height="300"></rect> <g> <g> <path class="st0" d="M118.7,82.5h15.7l3.8,8.5h3.8l-13.7-30.5h-3.4L111.2,91h3.8L118.7,82.5z M126.6,64.7l6.5,14.6h-12.9 L126.6,64.7z"></path> <polygon class="st0" points="154.2,91 157.8,91 157.8,63.8 169,63.8 169,60.5 143.1,60.5 143.1,63.8 154.2,63.8 "></polygon> <polygon class="st0" points="197.8,87.7 180,87.7 180,77.5 196,77.5 196,74.2 180,74.2 180,63.8 197.8,63.8 197.8,60.5 176.5,60.5 176.5,91 197.8,91 "></polygon> <path class="st0" d="M220.3,74.3l-5-0.9c-3.6-0.7-5.6-2.2-5.6-4.9c0-3.4,2.9-5.5,7.4-5.5c5,0,7.5,2.2,8.2,5.9h3.5 c-0.8-6.3-6-8.9-12-8.9c-6.5,0-10.9,3.4-10.9,8.7c0,4.2,2.6,6.9,8,8l5.7,1.1c3.9,0.7,5.5,2.6,5.5,5c0,3.4-3,5.6-7.6,5.6 c-5.4,0-8.7-2.6-9.4-7.1h-3.5c0.7,6.6,5.4,10.3,12.7,10.3c6.9,0,11.4-3.6,11.4-9.1C228.8,77.9,225.7,75.4,220.3,74.3z"></path> <path class="st0" d="M120.7,104.6h-16.9l-30.2,71.1h18.8l4.7-12.2h30.1l4.8,12.2h18.8L120.7,104.6z M102.8,148.7l9.3-23.9 l9.3,23.9H102.8z"></path> <path class="st0" d="M98.8,187.9c-14.8,0-26.7,11.8-26.7,26.5c0,14.8,11.9,26.5,26.7,26.5c14.8,0,26.7-11.8,26.7-26.5 C125.5,199.7,113.6,187.9,98.8,187.9z M98.8,233.4c-10.5,0-18.5-8.4-18.5-18.9c0-10.5,8-19,18.5-19c10.5,0,18.5,8.5,18.5,19 C117.3,225,109.3,233.4,98.8,233.4z"></path> <polygon class="st0" points="171.4,225.8 140.8,188.9 134.6,188.9 134.6,240.1 142.7,240.1 142.7,203.9 172.9,240.1 179.4,240.1 179.4,188.9 171.4,188.9 "></polygon> <polygon class="st0" points="191.6,240.1 228.4,240.1 228.4,232.6 199.8,232.6 199.8,218.5 225.4,218.5 225.4,211 199.8,211 199.8,196.3 228.4,196.3 228.4,188.9 191.6,188.9 "></polygon> <path class="st0" d="M211.2,167l0.7,8.7h13.2v-39.9h-38v13.9l20.4,0.2c-3.6,6.9-9.8,11.1-18.1,11.1c-12.5,0-20.6-9.3-20.6-20.5 c0-12.5,8.3-21.2,20.5-21.2c4.8,0,10,1.4,13.6,5.6H223c-4.9-13.8-18.5-21.6-34.2-21.6c-21.6,0-37.9,15.5-37.9,37.6 c0,20.4,15.6,36.2,37.8,36.2C198.7,177,206.1,173.3,211.2,167z"></path> <path class="st0" d="M89.3,91.5c5.6,0,9.5-2.7,11.6-6.8l0.3,6.2h2.9V74.9H89v3.3h11.3c-0.9,5.7-4.8,10-11,10 c-7.1,0-12.2-5.6-12.2-12.2c0-7.4,5.4-12.7,12.5-12.7c3.7,0,7.5,1.7,9.5,5h4.1c-2.4-5.4-7.8-8.3-13.7-8.3c-8.9,0-16,6.8-16,16 C73.5,84.5,80.3,91.5,89.3,91.5z"></path> </g> </g> </svg> 